<?xml version="1.0" encoding="utf-8"?>
<!-- Generator: Adobe Illustrator 19.2.0, SVG Export Plug-In . SVG Version: 6.00 Build 0)  -->
<svg version="1.1" id="Capa_1" xmlns="http://www.w3.org/2000/svg" xmlns:xlink="http://www.w3.org/1999/xlink" x="0px" y="0px"
	 viewBox="0 0 38 33" style="enable-background:new 0 0 38 33;" xml:space="preserve">
<style type="text/css">
	.st0{clip-path:url(#SVGID_2_);}
	.st1{fill:url(#SVGID_3_);}
</style>
<g>
	<defs>
		<path id="SVGID_1_" d="M0.5,19.4c0-0.1,0.1-0.2,0.1-0.3c0.1-1,0.5-2,1.2-2.7c0.6-0.7,1.3-1.3,1.9-1.9c1.6-1.6,3.3-3.2,4.9-4.9
			c0.8-0.8,1.7-1.3,2.8-1.5c0.5-0.1,1-0.1,1.5-0.1C14,8,15,8.4,15.8,9.1c0.2,0.1,0.3,0.3,0.5,0.4c0.9,0.9,1.8,1.8,2.6,2.6
			c0,0,0.1,0.1,0.1,0.1c0,0,0.1-0.1,0.1-0.1c0.9-0.9,1.8-1.7,2.6-2.6c0.8-0.8,1.7-1.3,2.8-1.6c1.5-0.3,3,0,4.2,1
			c0.6,0.4,1,1,1.6,1.5c1.4,1.4,2.8,2.8,4.2,4.3c0.4,0.4,0.9,0.9,1.3,1.3c0.8,0.8,1.2,1.7,1.4,2.8c0.3,1.6-0.1,3-1.1,4.2
			c-0.8,1-1.9,1.7-3.2,1.9c-0.4,0.1-0.8,0.1-1.2,0.1c-1.2-0.1-2.3-0.4-3.2-1.3c-1-1-2-2-3-3c0,0-0.1-0.1-0.1-0.2
			c-0.1,0.1-0.2,0.3-0.3,0.4c-0.9,0.9-1.8,1.8-2.7,2.7C21.9,24.4,21,24.8,20,25c-0.5,0.1-1,0.1-1.5,0.1c-1-0.1-2-0.4-2.7-1.1
			c-0.6-0.5-1.1-1-1.6-1.5c-0.6-0.6-1.1-1.1-1.7-1.7c0,0-0.1-0.1-0.1-0.1c0,0-0.1,0.1-0.1,0.1c-0.9,0.9-1.9,1.9-2.8,2.8
			c-1.1,1-2.5,1.5-4,1.4c-1.1-0.1-2-0.4-2.9-1.1c-1.1-0.8-1.7-1.9-2-3.2c0-0.2,0-0.3-0.1-0.5c0,0,0-0.1,0-0.1
			C0.5,19.9,0.5,19.6,0.5,19.4z M19,14.1c-0.1-0.1-0.1-0.1-0.1-0.1c-1.2-1.2-2.4-2.4-3.5-3.5c-0.2-0.2-0.4-0.4-0.6-0.5
			c-0.8-0.6-1.9-0.9-2.9-0.7c-0.8,0.1-1.5,0.4-2.1,1c-1.2,1.2-2.5,2.4-3.7,3.7C6,13.9,6,14,5.9,14C6,14,6,14,6,14
			c0.2,0,0.5,0.1,0.7,0.1c1,0.2,1.8,0.8,2.5,1.5c2.1,2,4.1,4.1,6.2,6.2c0.4,0.4,0.7,0.8,1.1,1.1c0.9,0.7,2,1,3.2,0.8
			c0.8-0.1,1.5-0.4,2-1c1.1-1,2.1-2.1,3.1-3.2c0.5-0.6,1.1-1.1,1.6-1.6c0.9-0.8,1.7-1.7,2.6-2.5c0.6-0.6,1.3-1,2.1-1.2
			c0.2-0.1,0.5-0.1,0.8-0.2c0,0-0.1-0.1-0.1-0.1C31,12.9,30,12,29.1,11c-0.4-0.4-0.7-0.7-1.1-1c-0.9-0.6-1.9-0.9-2.9-0.7
			c-0.8,0.1-1.5,0.5-2.1,1c-0.9,0.9-1.9,1.9-2.8,2.8C19.8,13.4,19.4,13.8,19,14.1L19,14.1z M11.5,19.8c0,0-0.1-0.1-0.1-0.1
			c-0.9-0.9-1.8-1.8-2.7-2.7c-0.5-0.5-1-1-1.7-1.3c-0.8-0.4-1.6-0.4-2.4-0.1c-0.8,0.4-1.4,1-1.9,1.6c-0.8,0.9-1,2-0.8,3.2
			c0.1,0.7,0.4,1.4,0.9,1.9c1,1.1,2.2,1.5,3.7,1.3c0.8-0.1,1.5-0.5,2.1-1.1c0.6-0.6,1.3-1.3,1.9-1.9C10.9,20.4,11.2,20.1,11.5,19.8z
			 M26.5,19.8c0,0.1,0.1,0.1,0.1,0.1c0.9,0.9,1.8,1.8,2.7,2.7c1,1,2.2,1.3,3.5,1.1c2.1-0.3,3.5-2.2,3.3-4.3c-0.1-0.7-0.3-1.4-0.7-2
			c-0.5-0.6-1-1.1-1.5-1.6c-0.6-0.5-1.4-0.7-2.2-0.5c-0.8,0.2-1.4,0.7-2,1.3c-1,1-2,2-3,3C26.7,19.7,26.6,19.7,26.5,19.8L26.5,19.8z
			"/>
	</defs>
	<clipPath id="SVGID_2_">
		<use xlink:href="#SVGID_1_"  style="overflow:visible;"/>
	</clipPath>
	<g class="st0">
		
			<linearGradient id="SVGID_3_" gradientUnits="userSpaceOnUse" x1="-0.5695" y1="17.7107" x2="38.5762" y2="17.7107" gradientTransform="matrix(1 0 0 -1 0 33.89)">
			<stop  offset="0" style="stop-color:#128ED9"/>
			<stop  offset="0.5" style="stop-color:#15B3D9"/>
			<stop  offset="1" style="stop-color:#18DBD9"/>
		</linearGradient>
		<rect x="-0.6" y="6.9" class="st1" width="39.1" height="18.5"/>
	</g>
</g>
</svg>
